<svg width="12" height="24" viewBox="0 0 12 24" fill="none" xmlns="http://www.w3.org/2000/svg">
<path d="M7.4381 5.72691C7.4381 5.97254 7.4381 6.77312 7.4381 7.91049H11.3486L10.9246 11.3964H7.4381C7.4381 16.7724 7.4381 23.9765 7.4381 23.9765H2.81032C2.81032 23.9765 2.81032 16.8678 2.81032 11.3964H0.398926V7.91049H2.81032C2.81032 6.52805 2.81032 5.54504 2.81032 5.27134C2.81032 3.96727 2.71207 3.34852 3.26618 2.33799C3.82057 1.32751 5.38432 -0.00814899 8.08896 0.0240073C10.7943 0.0573354 11.9346 0.317585 11.9346 0.317585L11.3486 4.03276C11.3486 4.03276 9.62111 3.57662 8.77319 3.73918C7.92639 3.90179 7.4381 4.42341 7.4381 5.72691Z" fill="white"/>
</svg>
