<svg width="21" height="24" viewBox="0 0 21 24" fill="none" xmlns="http://www.w3.org/2000/svg">
<path d="M16.6586 5.037C15.6695 3.88716 15.1514 2.40156 15.1926 0.889085L11.4969 0.799805C11.4969 0.799805 11.4969 0.957485 11.4969 1.17012V15.9904C11.5485 20.679 4.14064 20.5652 4.72672 15.3827C5.08504 13.322 7.29928 12.0539 9.2668 12.7708V8.99988C4.98328 8.25396 0.923923 11.6634 0.966643 16.0069C1.34104 25.4269 14.8521 25.4281 15.227 16.0069C15.1326 15.6697 15.1854 9.39229 15.172 8.86285C16.8525 9.90853 18.8078 10.4312 20.788 10.3643V6.4698C18.9573 6.4698 17.5602 5.98308 16.6586 5.037Z" fill="white"/>
</svg>
